<svg xmlns="http://www.w3.org/2000/svg" viewBox="0 0 1600 1200" width="1600" height="1200" role="img">
  <defs>
    <linearGradient id="sky" x1="0" y1="0" x2="0" y2="1">
      <stop offset="0%" stop-color="#dae4f5"/><stop offset="62%" stop-color="#eef3fb"/>
      <stop offset="100%" stop-color="#f8f9fb"/>
    </linearGradient>
    <linearGradient id="tarmac" x1="0" y1="0" x2="0" y2="1">
      <stop offset="0%" stop-color="#55595f"/><stop offset="55%" stop-color="#3b3e42"/>
      <stop offset="100%" stop-color="#2f3236"/>
    </linearGradient>
    <linearGradient id="haze" x1="0" y1="0" x2="0" y2="1">
      <stop offset="0%" stop-color="#eef3fb" stop-opacity="0.95"/>
      <stop offset="100%" stop-color="#eef3fb" stop-opacity="0"/>
    </linearGradient>
  </defs>
  <rect width="1600" height="1200" fill="url(#sky)"/>
  <rect x="250" y="484" width="54" height="101" rx="2" fill="#b6c9ea" opacity="0.55"/><rect x="324" y="498" width="55" height="87" rx="2" fill="#b6c9ea" opacity="0.55"/><rect x="394" y="532" width="38" height="53" rx="2" fill="#b6c9ea" opacity="0.55"/><rect x="451" y="495" width="58" height="90" rx="2" fill="#b6c9ea" opacity="0.55"/><rect x="526" y="543" width="37" height="42" rx="2" fill="#b6c9ea" opacity="0.55"/><rect x="577" y="537" width="45" height="48" rx="2" fill="#b6c9ea" opacity="0.55"/><rect x="630" y="467" width="60" height="118" rx="2" fill="#b6c9ea" opacity="0.55"/><rect x="707" y="415" width="28" height="170" rx="2" fill="#b6c9ea" opacity="0.55"/><rect x="749" y="464" width="36" height="121" rx="2" fill="#b6c9ea" opacity="0.55"/><rect x="805" y="458" width="59" height="127" rx="2" fill="#b6c9ea" opacity="0.55"/><rect x="871" y="462" width="38" height="123" rx="2" fill="#b6c9ea" opacity="0.55"/><rect x="928" y="514" width="55" height="71" rx="2" fill="#b6c9ea" opacity="0.55"/><rect x="997" y="489" width="38" height="96" rx="2" fill="#b6c9ea" opacity="0.55"/><rect x="1045" y="492" width="44" height="93" rx="2" fill="#b6c9ea" opacity="0.55"/><rect x="1096" y="497" width="31" height="88" rx="2" fill="#b6c9ea" opacity="0.55"/><rect x="1144" y="503" width="43" height="82" rx="2" fill="#b6c9ea" opacity="0.55"/><rect x="1202" y="465" width="31" height="120" rx="2" fill="#b6c9ea" opacity="0.55"/><rect x="1244" y="458" width="46" height="127" rx="2" fill="#b6c9ea" opacity="0.55"/><rect x="1300" y="519" width="58" height="66" rx="2" fill="#b6c9ea" opacity="0.55"/>
  <rect x="0" y="375" width="1600" height="215" fill="url(#haze)"/>
  <rect x="0" y="584" width="1600" height="3" fill="#b6c9ea" opacity="0.6"/>
  <polygon points="708.0,585.0 707.8,585.1 707.0,585.5 705.5,586.4 703.1,587.7 699.8,589.6 695.4,592.1 689.9,595.2 683.2,599.0 675.3,603.5 666.1,608.7 655.6,614.6 643.8,621.3 630.5,628.8 615.7,637.2 599.5,646.4 581.7,656.4 562.3,667.3 541.4,679.2 518.8,691.9 494.6,705.6 468.7,720.3 441.0,735.9 411.6,752.5 380.4,770.2 347.5,788.8 312.7,808.5 276.0,829.2 237.4,851.0 197.0,873.8 154.6,897.8 110.3,922.9 64.0,949.0 15.7,976.3 -34.6,1004.8 -87.0,1034.4 -141.4,1065.1 -197.9,1097.0 -256.4,1130.2 -317.2,1164.5 -380.0,1200.0 1980.0,1200.0 1917.2,1164.5 1856.4,1130.2 1797.9,1097.0 1741.4,1065.1 1687.0,1034.4 1634.6,1004.8 1584.3,976.3 1536.0,949.0 1489.7,922.9 1445.4,897.8 1403.0,873.8 1362.6,851.0 1324.0,829.2 1287.3,808.5 1252.5,788.8 1219.6,770.2 1188.4,752.5 1159.0,735.9 1131.3,720.3 1105.4,705.6 1081.2,691.9 1058.6,679.2 1037.7,667.3 1018.3,656.4 1000.5,646.4 984.3,637.2 969.5,628.8 956.2,621.3 944.4,614.6 933.9,608.7 924.7,603.5 916.8,599.0 910.1,595.2 904.6,592.1 900.2,589.6 896.9,587.7 894.5,586.4 893.0,585.5 892.2,585.1 892.0,585.0" fill="url(#tarmac)"/>
  <polygon points="734.0,585.0 735.6,585.1 736.5,585.5 736.8,586.4 736.1,587.7 734.5,589.6 731.9,592.1 728.1,595.2 723.2,599.0 717.1,603.5 709.6,608.7 700.9,614.6 690.8,621.3 679.2,628.8 666.2,637.2 651.7,646.4 635.7,656.4 618.1,667.3 598.9,679.2 578.1,691.9 555.6,705.6 531.4,720.3 505.5,735.9 477.9,752.5 448.4,770.2 417.2,788.8 384.2,808.5 349.2,829.2 312.4,851.0 273.7,873.8 233.1,897.8 190.5,922.9 146.0,949.0 99.4,976.3 50.9,1004.8 0.3,1034.4 -52.4,1065.1 -107.1,1097.0 -163.9,1130.2 -222.9,1164.5 -284.0,1200.0 -288.0,1200.0 -227.5,1164.5 -169.0,1130.2 -112.8,1097.0 -58.6,1065.1 -6.5,1034.4 43.6,1004.8 91.6,976.3 137.6,949.0 181.6,922.9 223.6,897.8 263.7,873.8 301.8,851.0 338.1,829.2 372.5,808.5 405.0,788.8 435.6,770.2 464.5,752.5 491.6,735.9 517.0,720.3 540.6,705.6 562.5,691.9 582.8,679.2 601.4,667.3 618.5,656.4 634.0,646.4 647.9,637.2 660.4,628.8 671.4,621.3 680.9,614.6 689.1,608.7 696.0,603.5 701.6,599.0 706.0,595.2 709.2,592.1 711.3,589.6 712.3,587.7 712.4,586.4 711.6,585.5 710.1,585.1 708.0,585.0" fill="#f8f9fb" opacity="0.75"/>
  <polygon points="866.0,585.0 864.4,585.1 863.5,585.5 863.2,586.4 863.9,587.7 865.5,589.6 868.1,592.1 871.9,595.2 876.8,599.0 882.9,603.5 890.4,608.7 899.1,614.6 909.2,621.3 920.8,628.8 933.8,637.2 948.3,646.4 964.3,656.4 981.9,667.3 1001.1,679.2 1021.9,691.9 1044.4,705.6 1068.6,720.3 1094.5,735.9 1122.1,752.5 1151.6,770.2 1182.8,788.8 1215.8,808.5 1250.8,829.2 1287.6,851.0 1326.3,873.8 1366.9,897.8 1409.5,922.9 1454.0,949.0 1500.6,976.3 1549.1,1004.8 1599.7,1034.4 1652.4,1065.1 1707.1,1097.0 1763.9,1130.2 1822.9,1164.5 1884.0,1200.0 1880.0,1200.0 1818.4,1164.5 1758.8,1130.2 1701.5,1097.0 1646.2,1065.1 1593.0,1034.4 1541.8,1004.8 1492.7,976.3 1445.6,949.0 1400.5,922.9 1357.4,897.8 1316.2,873.8 1277.0,851.0 1239.6,829.2 1204.1,808.5 1170.5,788.8 1138.8,770.2 1108.8,752.5 1080.6,735.9 1054.1,720.3 1029.4,705.6 1006.4,691.9 985.0,679.2 965.3,667.3 947.1,656.4 930.5,646.4 915.5,637.2 901.9,628.8 889.8,621.3 879.2,614.6 869.9,608.7 861.9,603.5 855.2,599.0 849.7,595.2 845.4,592.1 842.2,589.6 840.1,587.7 838.9,586.4 838.6,585.5 839.0,585.1 840.0,585.0" fill="#f8f9fb" opacity="0.75"/>
  <polygon points="798.5,585.7 801.5,585.7 801.6,586.9 798.4,586.9" fill="#f8f9fb" opacity="0.92"/><polygon points="798.4,588.7 801.6,588.7 801.7,591.8 798.3,591.8" fill="#f8f9fb" opacity="0.92"/><polygon points="798.2,595.7 801.8,595.7 801.9,601.8 798.1,601.8" fill="#f8f9fb" opacity="0.92"/><polygon points="798.0,608.9 802.0,608.9 802.3,619.3 797.7,619.3" fill="#f8f9fb" opacity="0.92"/><polygon points="797.5,631.0 802.5,631.0 802.8,647.7 797.2,647.7" fill="#f8f9fb" opacity="0.92"/><polygon points="796.9,665.9 803.1,665.9 803.6,691.5 796.4,691.5" fill="#f8f9fb" opacity="0.92"/><polygon points="795.9,718.7 804.1,718.7 804.7,756.4 795.3,756.4" fill="#f8f9fb" opacity="0.92"/><polygon points="794.7,796.1 805.3,796.1 806.2,850.5 793.8,850.5" fill="#f8f9fb" opacity="0.92"/><polygon points="792.9,907.1 807.1,907.1 808.3,984.0 791.7,984.0" fill="#f8f9fb" opacity="0.92"/><polygon points="790.5,1063.5 809.5,1063.5 811.1,1170.8 788.9,1170.8" fill="#f8f9fb" opacity="0.92"/>
</svg>
